<?xml version="1.0" encoding="utf-8"?><!-- Uploaded to: SVG Repo, www.svgrepo.com, Generator: SVG Repo Mixer Tools -->
<svg version="1.1" id="Uploaded to svgrepo.com" xmlns="http://www.w3.org/2000/svg" xmlns:xlink="http://www.w3.org/1999/xlink" 
	 width="800px" height="800px" viewBox="0 0 32 32" xml:space="preserve">
<style type="text/css">
	.stone_een{fill:#0B1719;}
</style>
<path classname="stone_een" d="M27.857,27.864C27.935,29.572,26.571,31,24.861,31H7.139c-1.71,0-3.075-1.428-2.997-3.136L4.957,9.955
	C4.981,9.42,5.421,9,5.956,9h20.089c0.535,0,0.975,0.42,0.999,0.955L27.857,27.864z M16.185,1.003C12.787,0.901,10,3.625,10,7v1h2V7
	c0-2.209,1.791-4,4-4s4,1.791,4,4v1h2V7.252C22,3.966,19.468,1.101,16.185,1.003z"/>
</svg>